<?xml version="1.0" standalone="no"?>
<!DOCTYPE svg PUBLIC "-//W3C//DTD SVG 20010904//EN"
 "http://www.w3.org/TR/2001/REC-SVG-20010904/DTD/svg10.dtd">
<svg version="1.0" xmlns="http://www.w3.org/2000/svg"
 width="81.000000pt" height="81.000000pt" viewBox="0 0 81.000000 81.000000"
 preserveAspectRatio="xMidYMid meet">
<metadata>
Created by potrace 1.11, written by Peter Selinger 2001-2013
</metadata>
<g transform="translate(0.000000,81.000000) scale(0.100000,-0.100000)"
fill="#000000" stroke="none">
<path d="M357 560 c-18 -14 -34 -19 -51 -14 -40 10 -64 -4 -107 -63 -23 -30
-61 -67 -85 -82 -54 -33 -56 -45 -4 -38 36 5 40 3 40 -17 0 -12 6 -30 14 -41
12 -17 14 -16 22 11 7 26 9 24 14 -26 5 -52 6 -55 40 -63 46 -11 112 -12 136
-3 23 10 92 11 101 3 13 -13 51 -7 76 13 14 11 32 18 40 14 17 -6 56 43 73 94
12 34 8 109 -7 118 -5 3 -9 15 -9 28 0 25 -17 46 -37 46 -7 0 -22 9 -33 20
-24 24 -60 26 -99 5 -26 -13 -30 -13 -41 0 -17 21 -53 19 -83 -5z m207 -3 c16
-12 16 -15 1 -51 -9 -21 -15 -45 -13 -54 2 -10 11 2 19 28 17 49 43 60 63 27
9 -14 7 -21 -7 -32 -13 -9 -17 -20 -12 -34 15 -48 -38 -85 -81 -56 -16 10 -35
14 -49 11 -16 -4 -33 2 -53 19 -19 15 -33 21 -37 15 -8 -14 -48 -13 -63 2 -9
9 -16 7 -31 -6 -11 -10 -35 -21 -53 -25 -22 -4 -40 -18 -55 -40 l-23 -34 0 33
c0 29 -2 32 -25 26 -21 -5 -19 -1 18 33 26 25 44 35 49 28 3 -6 8 4 10 23 4
42 49 80 76 64 9 -6 20 -24 23 -40 l6 -29 8 30 c11 42 34 65 65 65 36 0 49
-16 44 -59 l-4 -36 11 37 c7 25 20 41 42 52 39 19 48 20 71 3z m93 -150 c1
-27 -2 -47 -8 -47 -6 0 -8 -9 -4 -20 4 -13 1 -22 -8 -26 -8 -3 -17 -15 -20
-26 -5 -16 -11 -19 -29 -15 -17 5 -27 1 -36 -13 -13 -21 -66 -28 -77 -10 -4 7
-13 7 -26 0 -13 -7 -25 -7 -38 -1 -14 8 -22 7 -30 -3 -12 -14 -94 -16 -107 -3
-4 4 -18 7 -31 7 -15 0 -23 6 -24 18 0 9 -2 36 -4 60 -3 45 11 62 53 62 11 0
25 7 32 15 9 11 17 12 32 4 13 -7 29 -7 48 -1 23 9 31 7 46 -10 13 -14 27 -18
49 -15 18 3 37 -1 47 -10 43 -38 108 -5 108 54 0 54 25 35 27 -20z"/>
</g>
</svg>
